<svg width="24" height="23" viewBox="0 0 24 23" fill="none" xmlns="http://www.w3.org/2000/svg">
<path d="M23.61 0.150052C23.235 -0.0339485 22.788 0.120052 22.604 0.490052L19.74 6.26605L18.037 4.45605C17.754 4.15305 17.279 4.14005 16.977 4.42405C16.675 4.70805 16.661 5.18405 16.945 5.48405L19.388 8.08005C19.531 8.23005 19.728 8.31505 19.934 8.31505C19.97 8.31505 20.007 8.31205 20.044 8.30705C20.287 8.27105 20.496 8.11705 20.606 7.89705L23.948 1.15705C24.132 0.785051 23.98 0.335052 23.608 0.151052L23.61 0.150052ZM19.018 16.6251C18.935 16.5611 16.974 15.0001 17.008 10.8651C17.03 8.43205 16.228 6.26905 14.752 4.77505C13.428 3.43505 11.636 2.69205 9.70601 2.68305H9.69301C7.76301 2.69305 5.971 3.43305 4.64701 4.77505C3.17201 6.27005 2.37001 8.43305 2.39001 10.8671C2.42601 15.0001 0.467005 16.5601 0.390005 16.6201C0.130005 16.8131 0.0230054 17.1501 0.124005 17.4581C0.226005 17.7661 0.514005 17.9731 0.836005 17.9731H4.91601C5.004 20.5431 7.10901 22.6131 9.70101 22.6131C12.293 22.6131 14.399 20.5431 14.486 17.9731H18.568C18.888 17.9731 19.172 17.7671 19.275 17.4631C19.378 17.159 19.273 16.8201 19.019 16.6251H19.018ZM9.70001 20.5131C8.26601 20.5131 7.10001 19.3861 7.01601 17.9731H12.384C12.299 19.3861 11.134 20.5131 9.70001 20.5131Z" fill="white"/>
</svg>
